<?xml version="1.0" standalone="no"?>
<!DOCTYPE svg PUBLIC "-//W3C//DTD SVG 20010904//EN"
 "http://www.w3.org/TR/2001/REC-SVG-20010904/DTD/svg10.dtd">
<svg version="1.0" xmlns="http://www.w3.org/2000/svg"
 width="270.000000pt" height="270.000000pt" viewBox="0 0 270.000000 270.000000"
 preserveAspectRatio="xMidYMid meet">
<metadata>
Created by potrace 1.11, written by Peter Selinger 2001-2013
</metadata>
<g transform="translate(0.000000,270.000000) scale(0.100000,-0.100000)"
fill="#000000" stroke="none">
<path d="M1150 2471 c-248 -64 -436 -214 -550 -440 -25 -51 -69 -191 -72 -233
-1 -15 -5 -28 -8 -28 -9 0 -6 -197 2 -206 5 -4 8 -17 8 -30 0 -50 57 -201 115
-303 25 -44 126 -161 163 -188 20 -15 43 -34 50 -42 6 -8 12 -10 12 -5 0 5
-20 27 -45 47 -51 43 -120 136 -164 222 -64 127 -89 293 -67 450 30 211 177
427 364 532 61 34 146 71 187 79 91 20 131 25 205 23 369 -5 677 -271 736
-634 9 -52 8 -177 0 -239 -7 -50 -37 -150 -58 -196 -32 -66 -107 -171 -161
-224 -33 -32 -51 -53 -39 -47 37 20 146 133 188 196 67 98 130 255 136 336 1
16 5 29 9 29 3 0 6 47 6 105 1 58 -3 102 -8 100 -4 -3 -7 3 -7 12 2 58 -48
202 -105 302 -52 92 -179 224 -267 278 -198 121 -418 158 -630 104z"/>
<path d="M1289 2216 c-2 -2 -25 -6 -51 -9 -61 -8 -175 -56 -235 -100 -147
-108 -235 -277 -236 -452 0 -110 6 -151 33 -211 11 -26 20 -51 20 -56 0 -10
78 -128 85 -128 2 0 -4 15 -15 33 -65 110 -84 270 -49 398 52 189 207 334 399
372 326 65 626 -188 615 -520 -1 -48 -5 -97 -8 -108 -14 -50 -38 -109 -57
-136 -14 -19 -16 -27 -7 -23 18 7 92 138 107 189 25 90 31 194 16 285 -18 108
-97 245 -187 323 -46 40 -173 115 -188 110 -4 0 -13 3 -22 8 -28 15 -209 35
-220 25z"/>
<path d="M1307 1833 c-3 -3 -39 -7 -79 -9 -40 -3 -81 -5 -90 -6 -20 -3 -32
-25 -18 -33 6 -4 10 -17 10 -31 0 -13 4 -24 10 -24 5 0 8 10 6 23 -6 38 11 57
53 57 l37 0 -48 -50 c-48 -50 -51 -59 -50 -145 0 -31 7 -64 15 -71 4 -4 7 -14
7 -22 0 -12 -3 -12 -15 -2 -9 7 -17 11 -19 9 -8 -7 19 -36 46 -50 l26 -14 -18
-40 c-16 -35 -299 -716 -316 -760 -6 -14 -2 -13 27 3 36 20 65 23 62 7 -3 -15
-140 -351 -153 -375 -6 -12 -9 -24 -6 -27 3 -3 38 10 78 30 111 53 207 83 329
102 84 13 265 8 350 -11 13 -3 35 -7 48 -10 45 -9 146 -47 219 -81 41 -19 75
-33 77 -31 3 3 -70 189 -115 293 -27 62 -50 118 -50 121 0 8 55 -8 78 -22 24
-16 27 -13 12 14 -8 13 -146 343 -326 778 -4 10 6 16 46 28 15 4 31 19 41 37
10 20 10 20 -16 3 -33 -22 -41 -13 -24 27 7 18 12 54 12 81 -1 27 5 65 13 84
8 19 12 39 9 43 -2 5 2 14 10 21 17 14 9 39 -13 39 -9 -1 -32 2 -49 5 -18 3
-33 1 -33 -4 0 -6 13 -10 29 -10 37 0 50 -17 45 -60 -4 -32 -24 -68 -24 -43 0
6 -21 34 -46 62 -25 28 -39 48 -30 45 9 -3 16 -2 16 3 0 4 -17 9 -37 10 -21 1
-59 4 -84 7 -26 3 -49 3 -52 -1z m-30 -1143 c21 -12 43 -30 50 -40 12 -17 15
-15 48 16 41 39 93 55 149 48 42 -5 66 -19 67 -38 0 -6 15 -42 33 -81 19 -38
32 -72 30 -73 -1 -2 -27 1 -56 8 -154 33 -383 33 -508 0 -19 -6 -40 -10 -47
-10 -15 0 59 170 82 186 24 18 110 9 152 -16z"/>
</g>
</svg>
